<?xml version="1.0" encoding="UTF-8" standalone="no"?>
<!DOCTYPE svg PUBLIC "-//W3C//DTD SVG 20010904//EN"
"http://www.w3.org/TR/2001/REC-SVG-20010904/DTD/svg10.dtd">
<!-- Created with Sodipodi ("http://www.sodipodi.com/") -->
<svg
   xmlns="http://www.w3.org/2000/svg"
   xmlns:sodipodi="http://sodipodi.sourceforge.net/DTD/sodipodi-0.dtd"
   xmlns:xlink="http://www.w3.org/1999/xlink"
   id="svg748"
   sodipodi:version="0.34"
   width="210mm"
   height="297mm"
   xml:space="preserve"
   sodipodi:docname="/space/cb117521/belenix-lines.svg"
   sodipodi:docbase="/space/cb117521"><defs
   id="defs750"><linearGradient
   id="linearGradient675"><stop
   style="stop-color:#ffc726;stop-opacity:1;"
   offset="0"
   id="stop676" /><stop
   style="stop-color:#ffb226;stop-opacity:1;"
   offset="1"
   id="stop677" /></linearGradient><radialGradient
   xlink:href="#linearGradient675"
   id="radialGradient678"
   cx="0.50387597"
   cy="0.45312503"
   r="0.57255363"
   fx="0.50387597"
   fy="0.45312503" /><linearGradient
   xlink:href="#linearGradient675"
   id="linearGradient701" /><linearGradient
   xlink:href="#linearGradient675"
   id="linearGradient702" /><radialGradient
   xlink:href="#linearGradient675"
   id="radialGradient728"
   cx="0.49999994"
   cy="0.49999991"
   r="0.5"
   fx="0.49999994"
   fy="0.49999991" /><radialGradient
   xlink:href="#linearGradient675"
   id="radialGradient729"
   cx="-0.2823683"
   cy="0.18705985"
   r="0.98246193"
   fx="-0.2823683"
   fy="0.18705985" /><radialGradient
   xlink:href="#linearGradient675"
   id="radialGradient730"
   cx="1.29540813"
   cy="0.18705794"
   r="0.98246193"
   fx="1.29540813"
   fy="0.18705794" /><linearGradient
   xlink:href="#linearGradient675"
   id="linearGradient731" /><radialGradient
   xlink:href="#linearGradient675"
   id="radialGradient732" /><radialGradient
   xlink:href="#linearGradient675"
   id="radialGradient733" /><radialGradient
   xlink:href="#linearGradient675"
   id="radialGradient734" /><radialGradient
   xlink:href="#linearGradient675"
   id="radialGradient735" /><radialGradient
   xlink:href="#linearGradient675"
   id="radialGradient736" /><linearGradient
   xlink:href="#linearGradient675"
   id="linearGradient811" /></defs><sodipodi:namedview
   id="base"
   pagecolor="#5382aa"><sodipodi:guide
   orientation="vertical"
   position="292.199524"
   id="guide784" /><sodipodi:guide
   orientation="horizontal"
   position="408.490509"
   id="guide785" /><sodipodi:guide
   orientation="horizontal"
   position="746.220459"
   id="guide799" /></sodipodi:namedview><g
   id="g889"
   style="stroke:#000000;stroke-opacity:1;stroke-width:5;stroke-dasharray:none;"
   transform="translate(-7.66108,-469.9602)"><g
   id="g890"
   style="stroke:#000000;stroke-opacity:1;stroke-width:5;stroke-dasharray:none;"
   transform="translate(6.833534,246.0067)"><path
   style="font-size:12;fill:#ffaf26;fill-rule:evenodd;stroke:#000000;stroke-width:5;fill-opacity:1;stroke-opacity:1;stroke-dasharray:none;"
   d="M 235.0539 672.1337 C 235.0539 672.1337 233.788 653.1454 241.3835 644.9172 C 248.1769 636.9914 253.7075 632.512 276.1952 638.5876 C 291.1755 642.8058 311.0071 635.423 312.9059 616.4347 C 320.5012 634.157 296.1515 655.4701 280.6258 651.8796 C 238.1749 641.4288 239.4846 650.6135 235.0539 672.1337 z "
   id="path891"
   sodipodi:nodetypes="csscsc" /><path
   style="font-size:12;fill:#ffaf26;fill-rule:evenodd;stroke:#000000;stroke-width:5;fill-opacity:1;stroke-opacity:1;stroke-dasharray:none;"
   d="M 312.7197 722.8916 C 312.7197 722.8916 300.543 708.2668 301.8579 697.1462 C 302.7012 686.7416 304.5466 679.8679 326.3154 671.5778 C 340.9172 666.1936 352.632 648.5708 343.0166 632.0872 C 359.5726 641.97 356.1803 671.6221 337.708 679.7336 C 297.9105 697.8293 303.6665 702.8718 312.7197 722.8916 z "
   id="path892"
   sodipodi:nodetypes="csscsc" /><path
   style="font-size:12;fill:#ffaf26;fill-rule:evenodd;stroke:#000000;stroke-width:5;fill-opacity:1;stroke-opacity:1;stroke-dasharray:none;"
   d="M 409.4747 730.5193 C 409.4747 730.5193 390.781 726.9553 384.7343 717.5302 C 378.7781 708.9576 375.8383 702.4761 387.389 682.2475 C 395.2487 668.8153 393.1063 647.7628 375.2105 641.1365 C 394.2755 638.2563 408.7588 667.1941 401.3687 681.3125 C 380.5496 719.7554 389.7677 720.8044 409.4747 730.5193 z "
   id="path893"
   sodipodi:nodetypes="csscsc" /><path
   style="font-size:12;fill:#ffaf26;fill-rule:evenodd;stroke:#000000;stroke-width:5;fill-opacity:1;stroke-opacity:1;stroke-dasharray:none;"
   d="M 482.0408 688.7293 C 482.0408 688.7293 463.7214 693.8821 454.1042 688.1459 C 444.9482 683.1323 439.4249 678.6439 440.7346 655.3867 C 441.7739 639.8587 430.4617 621.9749 411.4898 624.0311 C 427.2657 612.9457 453.1406 623.5177 452.8278 648.3113 C 452.2618 692.0261 460.0696 688.8299 482.0408 688.7293 z "
   id="path894"
   sodipodi:nodetypes="csscsc" /><path
   style="font-size:12;fill:#ffaf26;fill-rule:evenodd;stroke:#000000;stroke-width:5;fill-opacity:1;stroke-opacity:1;stroke-dasharray:none;"
   d="M 527.3542 599.1791 C 527.3542 599.1791 514.3758 613.0973 503.1782 613.1905 C 492.75 613.6616 485.6991 612.6948 474.7387 592.1403 C 467.562 578.3311 448.6067 568.9241 433.4623 580.5348 C 441.1859 562.8682 473.3904 566.0357 481.398 579.8131 C 502.8307 617.9174 508.6312 610.6766 527.3542 599.1791 z "
   id="path895"
   sodipodi:nodetypes="csscsc" /><path
   style="font-size:12;fill:#ffaf26;fill-rule:evenodd;stroke:#000000;stroke-width:5;fill-opacity:1;stroke-opacity:1;stroke-dasharray:none;"
   d="M 542.2145 507.584 C 542.2145 507.584 536.6037 525.7683 526.5672 530.7349 C 517.3882 535.7059 510.6212 537.9104 491.7952 524.1919 C 479.3152 514.8941 458.155 514.6936 449.5889 531.7459 C 448.8363 512.4795 475.4015 497.4898 492.4128 510.1946 C 528.0661 535.4955 530.3784 526.0948 542.2145 507.584 z "
   id="path896"
   sodipodi:nodetypes="csscsc" /><path
   style="font-size:12;fill:#ffaf26;fill-rule:evenodd;stroke:#000000;stroke-width:5;fill-opacity:1;stroke-opacity:1;stroke-dasharray:none;"
   d="M 499.0545 425.2817 C 499.0545 425.2817 504.0047 443.657 498.1625 453.2103 C 493.0481 462.3102 488.4989 467.7835 465.2577 466.217 C 449.742 465.0061 431.7343 476.12 433.5808 495.1135 C 422.6704 479.2161 432.894 453.5575 458.3162 454.0465 C 502.0261 454.9088 498.9123 447.2527 499.0545 425.2817 z "
   id="path897"
   sodipodi:nodetypes="csscsc" /><path
   style="font-size:12;fill:#ffaf26;fill-rule:evenodd;stroke:#000000;stroke-width:5;fill-opacity:1;stroke-opacity:1;stroke-dasharray:none;"
   d="M 428.4282 381.5986 C 428.4282 381.5986 439.0186 397.4099 436.5548 408.3337 C 434.6345 418.5941 432.0846 425.2387 409.5718 431.2208 C 394.4895 435.0581 384.8038 452.6334 392.6537 470.0271 C 377.2147 458.4769 370.5562 430.376 399.0888 421.9251 C 440.9299 409.2513 435.3512 402.4509 428.4282 381.5986 z "
   id="path898"
   sodipodi:nodetypes="csscsc" /><path
   style="font-size:12;fill:#ffaf26;fill-rule:evenodd;stroke:#000000;stroke-width:5;fill-opacity:1;stroke-opacity:1;stroke-dasharray:none;"
   d="M 334.426 365.9448 C 334.426 365.9448 351.6066 374.1292 355.0677 384.7788 C 358.6573 394.5809 359.8588 401.596 343.5594 418.2375 C 332.5525 429.2396 329.2905 450.1481 344.923 461.0928 C 325.7504 459.0481 314.6421 430.5493 329.7989 415.5997 C 360.2814 384.2608 351.0282 380.336 334.426 365.9448 z "
   id="path899"
   sodipodi:nodetypes="csscsc" /><path
   style="fill:#ffaf26;fill-rule:evenodd;stroke:#000000;stroke-opacity:1;stroke-width:5;stroke-linejoin:miter;stroke-linecap:butt;fill-opacity:1;stroke-dasharray:none;"
   d="M 246.2147 418.7863 C 246.2147 418.7863 265.203 417.5204 273.4313 425.1158 C 281.3569 431.9092 285.8364 437.4399 279.7608 459.9276 C 275.5425 474.9078 282.9254 494.7395 301.9137 496.6384 C 284.1913 504.2337 258.6594 489.1556 266.4688 464.3582 C 279.101 426.2569 267.7348 423.2169 246.2147 418.7863 z "
   id="path900"
   sodipodi:nodetypes="csscsc" /><path
   style="font-size:12;fill:#ffaf26;fill-rule:evenodd;stroke:#000000;stroke-width:5;fill-opacity:1;stroke-opacity:1;stroke-dasharray:none;"
   d="M 187.7373 494.3489 C 187.7373 494.3489 203.5487 483.7585 214.4723 486.2222 C 224.7328 488.1426 231.3775 490.6926 237.3597 513.2053 C 241.1967 528.2877 257.5063 541.771 274.9001 533.9213 C 263.3497 549.3602 234.6159 549.6893 228.0638 523.6883 C 216.4191 481.5492 208.5896 487.4259 187.7373 494.3489 z "
   id="path901"
   sodipodi:nodetypes="csscsc" /><path
   style="font-size:12;fill:#ffaf26;fill-rule:evenodd;stroke:#000000;stroke-width:5;fill-opacity:1;stroke-opacity:1;stroke-dasharray:none;"
   d="M 187.7035 592.7853 C 187.7035 592.7853 196.1013 575.708 206.7933 572.3799 C 216.6394 568.9127 223.6688 567.7987 240.1059 584.3042 C 250.9701 595.4474 271.8362 598.9695 282.9748 583.4746 C 280.6914 602.6202 260.3403 618.3972 237.2969 598.0307 C 204.9835 568.5835 202.3006 576.3636 187.7035 592.7853 z "
   id="path902"
   sodipodi:nodetypes="csscsc" /></g><path
   style="font-size:12;fill:#ffc726;fill-rule:evenodd;stroke:#000000;stroke-width:5;fill-opacity:1;stroke-opacity:1;stroke-dasharray:none;"
   d="M 393.928 749.1634 C 397.3021 738.0655 396.4599 725.2819 388.9207 718.1342 C 376.0697 705.9505 377.0493 711.9138 359.7555 708.4903 C 348.4616 706.2545 327.388 699.6169 328.6118 672.3747 C 331.4185 609.9179 265.7 613.0269 260.1736 617.9147 C 272.9988 617.2665 306.1519 634.1619 294.4989 672.5904 C 285.9424 700.1318 289.2438 734.1517 323.7529 741.4757 C 343.2605 746.6007 361.2982 719.54 377.985 726.428 C 388.999 730.9241 391.7902 740.5539 393.928 749.1634 z "
   id="path903"
   sodipodi:nodetypes="cssscsssc" /><path
   style="font-size:12;fill:#ffc726;fill-rule:evenodd;stroke:#000000;stroke-width:5;fill-opacity:1;stroke-opacity:1;stroke-dasharray:none;"
   d="M 408.2995 778.3328 C 417.5336 771.3135 424.3395 760.4603 422.4152 750.2502 C 419.1361 732.8478 416.8835 730.4308 404.8712 717.5258 C 397.0277 709.099 379.608 692.8032 396.5567 671.4402 C 435.4146 622.4634 378.9565 579.2052 371.6149 579.9287 C 382.3894 586.916 390.8894 628.1875 368.4497 656.1697 C 355.136 673.0038 331.4356 699.825 355.1158 725.974 C 367.9241 741.5533 399.2038 735.2103 408.694 750.5673 C 414.9872 760.6621 411.6093 770.1022 408.2995 778.3328 z "
   id="path904"
   sodipodi:nodetypes="cssscsssc" /><path
   style="font-size:12;fill:#ffc726;fill-rule:evenodd;stroke:#000000;stroke-width:5;fill-opacity:1;stroke-opacity:1;stroke-dasharray:none;"
   d="M 391.986 797.3358 C 403.5585 798.1221 415.8233 794.4224 421.0894 785.4667 C 430.0645 770.2009 435.2263 758.839 441.1506 742.2342 C 447.2256 726.1271 430.0764 708.9155 455.8969 700.1452 C 510.9401 682.369 486.4456 625.0492 476.7591 612.4853 C 480.2796 624.836 483.3843 670.5237 448.0767 676.8428 C 426.9768 680.7665 389.5134 689.2768 390.1516 724.5485 C 389.5533 744.7091 413.4963 758.8704 410.5448 776.6813 C 408.6468 788.4244 399.8927 793.3126 391.986 797.3358 z "
   id="path905"
   sodipodi:nodetypes="cssscsssc" /><path
   sodipodi:type="arc"
   style="stroke:#000000;stroke-opacity:1;stroke-width:5;stroke-dasharray:none;fill:url(#radialGradient678);fill-opacity:1;stroke-linejoin:round;stroke-linecap:round;fill-rule:evenodd;"
   id="path906"
   d="M 310.2241 940.0988 A 83.12634 83.12634 0 1 0 143.9714 940.0988 A 83.12634 83.12634 0 1 0  310.2241 940.0988 z"
   sodipodi:cx="227.097748"
   sodipodi:cy="940.098755"
   sodipodi:rx="83.1263428"
   sodipodi:ry="83.1263428"
   transform="matrix(1.292738,0,0,1.292738,75.30157,-410.0141)" /><path
   style="font-size:12;fill:#ffd351;fill-rule:evenodd;stroke:#000000;stroke-width:5;fill-opacity:1;stroke-opacity:1;stroke-dasharray:none;"
   d="M 394.8789 840.2939 C 395.8355 835.3541 377.1104 837.8158 374.2621 842.4522 C 376.9751 851.6633 379.3194 864.2753 383.284 864.7621 C 396.1528 864.222 392.0584 856.845 394.8789 840.2939 z "
   id="path907"
   sodipodi:nodetypes="cccs" /><path
   sodipodi:type="arc"
   style="stroke:#000000;stroke-opacity:1;stroke-width:5;stroke-dasharray:none;fill:url(#radialGradient735);fill-opacity:1;stroke-linejoin:round;stroke-linecap:round;fill-rule:evenodd;"
   id="path908"
   d="M 156.826 880.5392 A 12.4261 12.42612 0 1 0 131.9738 880.5392 A 12.4261 12.42612 0 1 0  156.826 880.5392 z"
   sodipodi:cx="144.399887"
   sodipodi:cy="880.539185"
   sodipodi:rx="12.4261017"
   sodipodi:ry="12.4261169"
   transform="matrix(1.669446,0,0,1.669446,167.685,-702.9464)" /><path
   style="font-size:12;fill:#ffd351;fill-rule:evenodd;stroke:#000000;stroke-width:5;fill-opacity:1;stroke-opacity:1;stroke-dasharray:none;"
   d="M 335.1093 836.9176 C 336.6817 832.1381 352.4754 832.4146 355.8376 836.6932 C 354.2007 846.1549 349.4542 860.2831 349.4542 860.2831 C 340.0685 859.5189 332.3931 843.9235 335.1093 836.9176 z "
   id="path909"
   sodipodi:nodetypes="cccs" /><path
   style="font-size:12;fill:#ffd351;fill-rule:evenodd;stroke:#000000;stroke-width:5;fill-opacity:1;stroke-opacity:1;stroke-dasharray:none;"
   d="M 414.2662 835.5188 C 412.5011 830.8069 396.7316 831.724 393.5457 836.1353 C 395.5652 845.5227 400.881 859.4469 400.881 859.4469 C 410.2279 858.3025 417.2643 842.4086 414.2662 835.5188 z "
   id="path910"
   sodipodi:nodetypes="cccs" /><path
   sodipodi:type="arc"
   style="stroke:#000000;stroke-opacity:1;stroke-width:5;stroke-dasharray:none;fill:url(#radialGradient735);fill-opacity:1;stroke-linejoin:round;stroke-linecap:round;fill-rule:evenodd;"
   id="path911"
   d="M 156.826 880.5392 A 12.4261 12.42612 0 1 0 131.9738 880.5392 A 12.4261 12.42612 0 1 0  156.826 880.5392 z"
   sodipodi:cx="144.399887"
   sodipodi:cy="880.539185"
   sodipodi:rx="12.4261017"
   sodipodi:ry="12.4261169"
   transform="matrix(1.669446,0,0,1.669446,95.1301,-702.9464)" /><path
   sodipodi:type="arc"
   style="stroke:#000000;stroke-opacity:1;stroke-width:5;stroke-dasharray:none;fill:#ffd351;fill-opacity:1;stroke-linejoin:round;stroke-linecap:round;fill-rule:evenodd;"
   id="path912"
   d="M 232.2396 880.1107 A 11.99762 11.99762 0 1 0 208.2444 880.1107 A 11.99762 11.99762 0 1 0  232.2396 880.1107 z"
   sodipodi:cx="220.241974"
   sodipodi:cy="880.110657"
   sodipodi:rx="11.9976196"
   sodipodi:ry="11.9976196"
   transform="matrix(1.292738,0,0,1.292738,124.0464,-370.1314)" /><path
   sodipodi:type="arc"
   style="stroke:#000000;stroke-opacity:1;stroke-width:5;stroke-dasharray:none;fill:#ffd351;fill-opacity:1;stroke-linejoin:round;stroke-linecap:round;fill-rule:evenodd;"
   id="path913"
   d="M 156.826 880.5392 A 12.4261 12.42612 0 1 0 131.9738 880.5392 A 12.4261 12.42612 0 1 0  156.826 880.5392 z"
   sodipodi:cx="144.399887"
   sodipodi:cy="880.539185"
   sodipodi:rx="12.4261017"
   sodipodi:ry="12.4261169"
   transform="matrix(1.292738,0,0,1.292738,149.5267,-371.2398)" /><path
   style="font-size:12;fill:#ffc726;fill-rule:evenodd;stroke:#000000;stroke-width:5;fill-opacity:1;stroke-opacity:1;stroke-dasharray:none;"
   d="M 356.3183 752.1015 C 355.6179 740.5235 351.2995 735.2727 341.7433 731.1959 C 325.455 724.2471 311.6226 735.5836 297.8984 742.9938 C 287.6256 748.192 275.2277 737.2052 266.8927 711.2402 C 247.7834 651.7122 191.269 685.2433 187.7892 691.7482 C 199.5868 686.6767 230.7932 690.576 241.5779 724.7848 C 248.1682 745.2098 252.2238 778.499 287.1242 773.3531 C 307.1954 771.3672 318.1773 745.8088 336.2189 746.4577 C 348.1084 746.8387 348.5568 753.0548 356.3183 752.1015 z "
   id="path914"
   sodipodi:nodetypes="cssscsssc" /><path
   style="font-size:12;fill:#ffd351;fill-rule:evenodd;stroke:#000000;stroke-width:5;fill-opacity:1;stroke-opacity:1;stroke-dasharray:none;"
   d="M 354.6329 840.8181 C 353.3599 835.9501 372.205 837.2008 375.3459 841.6443 C 373.2315 851.0109 371.7045 863.7478 367.7796 864.4887 C 354.9025 864.7785 358.5137 857.1532 354.6329 840.8181 z "
   id="path915"
   sodipodi:nodetypes="cccs" /><path
   style="font-size:12;fill:#ffc726;fill-rule:evenodd;stroke:#000000;stroke-width:5;fill-opacity:1;stroke-opacity:1;stroke-dasharray:none;"
   d="M 388.6164 879.6307 C 400.0125 881.2671 406.1936 892.821 406.4093 920.0898 C 406.9031 982.6073 480.9746 963.1941 486.2353 958.0215 C 473.4621 959.3456 428.5328 949.5063 437.1706 914.6937 C 444.3287 889.5525 439.3412 861.1676 404.4939 855.6754 C 384.7431 851.5875 371.1657 877.1245 388.6164 879.6307 z "
   id="path916"
   sodipodi:nodetypes="cscsss" /><path
   style="font-size:12;fill:#ffc726;fill-rule:evenodd;stroke:#000000;stroke-width:5;fill-opacity:1;stroke-opacity:1;stroke-dasharray:none;"
   d="M 363.7019 878.1144 C 371.9798 886.1157 368.4139 898.0834 352.6163 920.3115 C 316.3979 971.2712 375.8124 994.4195 383.1057 993.3096 C 371.9775 986.9009 364.505 963.6111 385.4365 934.4835 C 397.8431 916.9703 415.6289 892.8613 390.6019 867.9986 C 376.9883 853.1166 351.0259 865.8617 363.7019 878.1144 z "
   id="path917"
   sodipodi:nodetypes="cscsss" /><path
   style="font-size:12;fill:#ffc726;fill-rule:evenodd;stroke:#000000;stroke-width:5;fill-opacity:1;stroke-opacity:1;stroke-dasharray:none;"
   d="M 338.7354 865.0661 C 340.7469 876.402 331.5033 884.1152 305.6717 892.8536 C 246.4488 912.889 282.7544 969.7363 289.3127 973.1145 C 284.0579 961.3964 283.885 927.9552 318.6038 918.9467 C 340.7637 912.9582 372.1449 907.4645 366.456 872.649 C 364.1571 852.6111 335.2109 855.3695 335.5783 837.3198 C 335.773 825.4259 335.6537 847.7078 338.7354 865.0661 z "
   id="path918"
   sodipodi:nodetypes="cscssss" /><path
   sodipodi:type="arc"
   style="font-size:12;fill:#ffc726;fill-rule:evenodd;stroke:#000000;stroke-width:5;stroke-linecap:round;stroke-linejoin:round;stroke-opacity:1;stroke-dasharray:none;"
   id="path919"
   d="M 319.6726 574.479 A 19.42844 19.42844 0 1 1 310.6634 537.9966"
   sodipodi:cx="310.369263"
   sodipodi:cy="557.422852"
   sodipodi:rx="19.4284363"
   sodipodi:ry="19.4284363"
   transform="matrix(-1,0,0,1,736.4421,250.3782)"
   sodipodi:start="1.07145141"
   sodipodi:end="4.72752636"
   sodipodi:open="true" /><path
   style="font-size:12;fill:#ffc726;fill-rule:evenodd;stroke:#000000;stroke-width:5;fill-opacity:1;stroke-opacity:1;stroke-dasharray:none;"
   d="M 389.5773 753.5399 C 384.8263 743.8062 391.0539 736.7466 400.6341 732.7267 C 416.9634 725.8745 427.9465 734.5382 445.3338 737.4516 C 456.6885 739.3541 458.535 700.3532 500.6581 712.7592 C 547.066 726.2844 552.1913 700.3887 551.7504 678.3254 C 566.621 698.6593 547.6289 744.4699 517.904 741.4209 C 457.4108 733.3438 491.7333 778.7308 456.8642 773.3781 C 436.805 771.2731 425.9749 745.6499 407.9297 746.1918 C 396.0382 746.5023 395.5421 753.6029 389.5773 753.5399 z "
   id="path920"
   sodipodi:nodetypes="cssscsssc" /><path
   style="font-size:12;fill:url(#radialGradient732);fill-rule:evenodd;stroke:#000000;stroke-width:5;fill-opacity:1;stroke-opacity:1;stroke-dasharray:none;"
   d="M 333.361 823.3089 C 333.361 823.3089 335.7579 854.8663 340.6345 860.9969 C 354.7349 878.2308 357.4575 871.4099 373.5355 871.5721 C 385.2791 871.4046 393.5113 877.0556 405.2618 863.347 C 408.0995 860.2256 414.407 840.2742 411.2735 832.8323 C 409.3154 837.9242 404.2093 841.8189 400.9534 847.6797 C 395.0779 857.8634 353.5598 860.997 343.3762 844.9379 C 340.1166 839.6721 334.536 827.2255 333.361 823.3089 z "
   id="path921"
   sodipodi:nodetypes="cssscssc" /><path
   style="font-size:12;fill:#ffd351;fill-rule:evenodd;stroke:#000000;stroke-width:5;fill-opacity:1;stroke-opacity:1;stroke-dasharray:none;"
   d="M 354.9476 835.5125 C 352.799 838.8295 371.5512 840.4669 375.4577 837.7054 C 375.1071 830.7096 375.9551 821.3778 372.234 820.3191 C 359.6315 818.3801 361.7742 824.3295 354.9476 835.5125 z "
   id="path922"
   sodipodi:nodetypes="cccs" /><path
   style="font-size:12;fill:#ffd351;fill-rule:evenodd;stroke:#000000;stroke-width:5;fill-opacity:1;stroke-opacity:1;stroke-dasharray:none;"
   d="M 395.1581 835.5871 C 397.4564 838.8506 378.7885 840.9392 374.7586 838.2733 C 374.7918 831.2729 373.5209 821.9667 377.192 820.8189 C 389.6997 818.5771 387.8278 824.5749 395.1581 835.5871 z "
   id="path923"
   sodipodi:nodetypes="cccs" /><path
   sodipodi:type="arc"
   style="font-size:12;fill:#ffc726;fill-rule:evenodd;stroke:#000000;stroke-width:5;stroke-linecap:round;stroke-linejoin:round;stroke-opacity:1;stroke-dasharray:none;"
   id="path924"
   d="M 319.6726 574.479 A 19.42844 19.42844 0 1 1 310.6634 537.9966"
   sodipodi:cx="310.369263"
   sodipodi:cy="557.422852"
   sodipodi:rx="19.4284363"
   sodipodi:ry="19.4284363"
   transform="translate(8.776379,250.3782)"
   sodipodi:start="1.07145141"
   sodipodi:end="4.72752636"
   sodipodi:open="true" /><path
   style="font-size:12;fill:#ffd351;fill-rule:evenodd;stroke:#000000;stroke-width:5;fill-opacity:1;stroke-opacity:1;stroke-dasharray:none;"
   d="M 337.9327 829.8188 C 338.9363 833.3878 351.3261 838.5208 356.2712 836.8652 C 359.1354 830.1833 361.3641 819.4396 361.3641 819.4396 C 340.2447 812.2106 335.4951 820.6905 337.9327 829.8188 z "
   id="path925"
   sodipodi:nodetypes="cccs" /><path
   style="font-size:12;fill:#ffd351;fill-rule:evenodd;stroke:#000000;stroke-width:5;fill-opacity:1;stroke-opacity:1;stroke-dasharray:none;"
   d="M 410.7409 832.0393 C 411.037 835.7011 396.2488 839.7492 391.5485 837.7503 C 389.5902 830.8971 388.8068 820.0461 388.8068 820.0461 C 409.7759 810.687 410.6895 826.5614 410.7409 832.0393 z "
   id="path926"
   sodipodi:nodetypes="cccs" /><path
   style="font-size:12;fill:#ffc726;fill-rule:evenodd;stroke:#000000;stroke-width:5;fill-opacity:1;stroke-opacity:1;stroke-dasharray:none;"
   d="M 373.0444 818.2652 C 368.4689 805.2421 340.6233 802.448 325.0609 808.3513 C 302.9541 817.1971 323.7667 832.6746 316.1102 849.37 C 311.1101 860.2731 297.6957 864.6082 269.526 857.1539 C 204.9428 840.0634 196.6873 892.1977 200.4885 898.8985 C 202.8375 885.7898 228.0563 867.562 265.0552 877.5539 C 287.2344 883.3889 326.3731 903.3005 342.1656 870.0991 C 352.1212 851.5551 326.1121 818.7081 338.737 822.1091 C 344.3053 823.4852 371.6281 833.0781 373.0444 818.2652 z "
   id="path927"
   sodipodi:nodetypes="cssscsssc" /><path
   style="font-size:12;fill:#ffc726;fill-rule:evenodd;stroke:#000000;stroke-width:5;fill-opacity:1;stroke-opacity:1;stroke-dasharray:none;"
   d="M 372.3081 818.5624 C 376.8765 805.2716 407.1974 798.2984 421.1421 807.6287 C 440.0059 819.9426 424.1752 823.6226 427.2195 847.1014 C 428.2773 859.2509 474.763 831.1638 482.4531 864.5138 C 490.8349 901.7256 515.0905 896.4583 555.3572 883.7435 C 519.7045 919.5327 470.9615 913.2338 466.4726 891.2949 C 457.2093 841.5247 430.3037 900.3367 407.1763 856.3323 C 397.3919 837.3263 418.6834 823.7403 406.1083 821.6599 C 399.4224 820.6298 382.4536 835.7813 372.3081 818.5624 z "
   id="path928"
   sodipodi:nodetypes="cssscsssc" /><path
   sodipodi:type="arc"
   style="stroke:#000000;stroke-opacity:1;stroke-width:5;stroke-dasharray:none;fill:#000000;fill-opacity:1;stroke-linejoin:round;stroke-linecap:round;fill-rule:evenodd;"
   id="path929"
   d="M 163.3092 889.9619 A 3.029854 3.029877 0 1 0 157.2495 889.9619 A 3.029854 3.029877 0 1 0  163.3092 889.9619 z"
   sodipodi:cx="160.279388"
   sodipodi:cy="889.961914"
   sodipodi:rx="3.02985382"
   sodipodi:ry="3.02987671"
   transform="matrix(2.379649,0,0,2.37965,-44.8932,-1350.614)" /><path
   style="font-size:12;fill:#ffc726;fill-rule:evenodd;stroke:#000000;stroke-width:5;fill-opacity:1;stroke-opacity:1;stroke-dasharray:none;"
   d="M 298.5253 797.5544 C 297.363 793.339 288.7617 770.357 272.8929 769.6958 C 251.0731 769.0346 249.0488 788.3441 255.6608 798.2622 C 262.2729 808.1802 253.0159 822.7266 264.2565 836.6118 C 271.5296 858.4317 291.3656 857.7703 295.3329 846.53 C 299.3001 835.2895 295.333 834.6283 292.0271 823.3879 "
   id="path930"
   sodipodi:nodetypes="cccccc" /><path
   style="font-size:12;fill:url(#radialGradient733);fill-rule:evenodd;stroke:#000000;stroke-width:5;fill-opacity:1;stroke-opacity:1;stroke-dasharray:none;"
   d="M 292.0271 797.601 C 292.0271 797.601 278.4643 770.7486 262.9341 784.3769 C 256.1465 800.4338 269.546 791.6499 267.5626 806.1966 C 265.5789 820.7429 270.2072 833.3059 280.7866 833.3059 C 291.3657 833.3059 272.1909 814.1309 278.1417 807.519 C 284.0926 800.9069 291.3657 799.5845 292.0271 797.601 z "
   id="path931"
   sodipodi:nodetypes="cccccc" /><path
   style="font-size:12;fill:#ffc726;fill-rule:evenodd;stroke:#000000;stroke-width:5;fill-opacity:1;stroke-opacity:1;stroke-dasharray:none;"
   d="M 284.8653 790.8329 C 273.2497 788.7733 255.7669 804.1156 235.5216 785.8462 C 189.1063 743.9609 164.4806 790.981 164.7372 798.3539 C 172.3936 788.0443 199.6264 776.2226 222.8941 803.5203 C 241.3589 826.2345 255.3559 839.3949 281.0082 824.145 "
   id="path932"
   sodipodi:nodetypes="cscsc" /><path
   style="font-size:12;fill:#ffc726;fill-rule:evenodd;stroke:#000000;stroke-width:5;fill-opacity:1;stroke-opacity:1;stroke-dasharray:none;"
   d="M 442.2567 791.0352 C 442.2567 786.4324 450.9507 767.7123 466.8196 767.051 C 486.6965 765.904 485.3209 778.4136 485.5088 795.6173 C 478.8967 805.5354 488.1536 820.0818 476.9131 833.9671 C 469.64 855.7869 449.8039 855.1256 445.8366 843.8852 C 441.8694 832.6446 445.8365 831.9835 449.1426 820.743 "
   id="path933"
   sodipodi:nodetypes="cccccc" /><path
   style="font-size:12;fill:url(#radialGradient734);fill-rule:evenodd;stroke:#000000;stroke-width:5;fill-opacity:1;stroke-opacity:1;stroke-dasharray:none;"
   d="M 449.1426 794.9561 C 455.4569 780.3848 470.9623 772.4752 478.2355 781.7321 C 485.5088 790.9889 471.6235 789.0052 473.6072 803.5517 C 475.5906 818.0981 470.9623 830.6611 460.383 830.6611 C 449.8039 830.6611 468.9787 811.4862 463.0278 804.8742 C 457.077 798.2621 449.8039 796.9397 449.1426 794.9561 z "
   id="path934"
   sodipodi:nodetypes="cccccc" /><path
   style="font-size:12;fill:#ffc726;fill-rule:evenodd;stroke:#000000;stroke-width:5;fill-opacity:1;stroke-opacity:1;stroke-dasharray:none;"
   d="M 460.8017 824.74 C 474.2173 826.0502 480.6506 797.4187 502.4476 813.8059 C 547.4856 846.7457 581.8582 790.3802 581.3536 783.0202 C 569.4483 802.782 535.3345 813.4604 508.0333 790.1968 C 491.6043 776.3869 482.818 773.5223 454.9529 795.1565 "
   id="path935"
   sodipodi:nodetypes="ccscsc" /><path
   sodipodi:type="arc"
   style="stroke:#000000;stroke-opacity:1;stroke-width:5;stroke-dasharray:none;fill:url(#radialGradient730);fill-opacity:1;stroke-linejoin:round;stroke-linecap:round;fill-rule:evenodd;"
   id="path936"
   d="M 156.826 880.5392 A 12.4261 12.42612 0 1 0 131.9738 880.5392 A 12.4261 12.42612 0 1 0  156.826 880.5392 z"
   sodipodi:cx="144.399887"
   sodipodi:cy="880.539185"
   sodipodi:rx="12.4261017"
   sodipodi:ry="12.4261169"
   transform="matrix(1.195572,0,0,1.195574,176.0806,-256.3631)" /><path
   sodipodi:type="arc"
   style="stroke:#000000;stroke-opacity:1;stroke-width:5;stroke-dasharray:none;fill:url(#radialGradient729);fill-opacity:1;stroke-linejoin:round;stroke-linecap:round;fill-rule:evenodd;"
   id="path937"
   d="M 156.826 880.5392 A 12.4261 12.42612 0 1 0 131.9738 880.5392 A 12.4261 12.42612 0 1 0  156.826 880.5392 z"
   sodipodi:cx="144.399887"
   sodipodi:cy="880.539185"
   sodipodi:rx="12.4261017"
   sodipodi:ry="12.4261169"
   transform="matrix(1.195572,0,0,1.195574,222.9605,-256.3633)" /><path
   sodipodi:type="arc"
   style="stroke:#000000;stroke-opacity:1;stroke-width:5;stroke-dasharray:none;fill:url(#radialGradient728);fill-opacity:1;stroke-linejoin:round;stroke-linecap:round;fill-rule:evenodd;"
   id="path938"
   d="M 156.826 880.5392 A 12.4261 12.42612 0 1 0 131.9738 880.5392 A 12.4261 12.42612 0 1 0  156.826 880.5392 z"
   sodipodi:cx="144.399887"
   sodipodi:cy="880.539185"
   sodipodi:rx="12.4261017"
   sodipodi:ry="12.4261169"
   transform="matrix(2.34921,0,0,2.34921,33.12914,-1281.484)" /><path
   sodipodi:type="arc"
   style="stroke:#000000;stroke-opacity:1;stroke-width:5;stroke-dasharray:none;fill:#000000;fill-opacity:1;stroke-linejoin:round;stroke-linecap:round;fill-rule:evenodd;"
   id="path939"
   d="M 163.3092 889.9619 A 3.029854 3.029877 0 1 0 157.2495 889.9619 A 3.029854 3.029877 0 1 0  163.3092 889.9619 z"
   sodipodi:cx="160.279388"
   sodipodi:cy="889.961914"
   sodipodi:rx="3.02985382"
   sodipodi:ry="3.02987671"
   transform="matrix(2.379649,0,0,2.37965,27.55766,-1350.227)" /><path
   style="fill:#ffc726;fill-rule:evenodd;stroke:#000000;stroke-opacity:1;stroke-width:5;stroke-linejoin:miter;stroke-linecap:butt;fill-opacity:1;stroke-dasharray:none;"
   d="M 283.4641 827.2446 C 283.4641 827.2446 275.7153 816.0088 277.2651 810.1973 C 278.4273 801.2862 289.6631 799.3489 289.6631 799.3489 "
   id="path940"
   sodipodi:nodetypes="ccc" /><path
   style="fill:#ffc726;fill-rule:evenodd;stroke:#000000;stroke-opacity:1;stroke-width:5;stroke-linejoin:miter;stroke-linecap:butt;fill-opacity:1;stroke-dasharray:none;"
   d="M 457.9936 824.9199 C 457.9936 824.9199 465.7424 813.6841 464.1926 807.8726 C 463.0304 798.9615 451.7946 797.0242 451.7946 797.0242 "
   id="path941"
   sodipodi:nodetypes="ccc" /><path
   style="fill:#b3b35c;fill-rule:evenodd;stroke:#000000;stroke-opacity:1;stroke-width:5;stroke-linejoin:miter;stroke-linecap:butt;fill-opacity:1;stroke-dasharray:none;"
   d="M 332.9042 766.7082 C 332.1007 768.6232 327.7538 769.3234 331.1498 763.7443 C 334.0606 760.1058 339.1547 760.3483 336.9715 763.0166 C 334.0606 763.9869 334.45 763.0241 332.9042 766.7082 z "
   id="path942"
   sodipodi:nodetypes="cccs" /><path
   style="fill:#b3b35c;fill-rule:evenodd;stroke:#000000;stroke-opacity:1;stroke-width:5;stroke-linejoin:miter;stroke-linecap:butt;fill-opacity:1;stroke-dasharray:none;"
   d="M 407.2737 765.4321 C 405.842 767.1089 401.01 770.0511 404.406 764.472 C 407.3168 760.8335 412.4109 761.076 410.2277 763.7443 C 407.3168 764.7146 409.7499 761.9978 407.2737 765.4321 z "
   id="path943"
   sodipodi:nodetypes="cccs" /><path
   style="font-size:12;fill:#646462;fill-rule:evenodd;stroke:#000000;stroke-width:5;fill-opacity:1;stroke-opacity:1;stroke-dasharray:none;"
   d="M 341.9027 769.0316 C 339.85 773.2147 334.8245 774.5278 336.3772 771.4496 C 340.1216 770.9844 344.0082 762.8489 341.9027 769.0316 z "
   id="path944"
   sodipodi:nodetypes="ccc" /><path
   style="font-size:12;fill:#646462;fill-rule:evenodd;stroke:#000000;stroke-width:5;fill-opacity:1;stroke-opacity:1;stroke-dasharray:none;"
   d="M 414.4823 769.2542 C 412.4296 773.4373 407.4041 774.7504 408.9568 771.6722 C 412.7012 771.207 416.5878 763.0715 414.4823 769.2542 z "
   id="path945"
   sodipodi:nodetypes="ccc" /></g><g
   id="g832"
   style="stroke:#000000;stroke-opacity:1;"
   transform="translate(-7.66108,-469.9602)"><g
   id="g678"
   style="stroke:#000000;stroke-opacity:1;stroke-width:1.25;stroke-dasharray:none;"
   transform="translate(6.833534,246.0067)"><path
   style="font-size:12;fill:#ffaf26;fill-rule:evenodd;stroke:#000000;stroke-width:1.25;fill-opacity:1;stroke-opacity:1;stroke-dasharray:none;"
   d="M 235.0539 672.1337 C 235.0539 672.1337 233.788 653.1454 241.3835 644.9172 C 248.1769 636.9914 253.7075 632.512 276.1952 638.5876 C 291.1755 642.8058 311.0071 635.423 312.9059 616.4347 C 320.5012 634.157 296.1515 655.4701 280.6258 651.8796 C 238.1749 641.4288 239.4846 650.6135 235.0539 672.1337 z "
   id="path679"
   sodipodi:nodetypes="csscsc" /><path
   style="font-size:12;fill:#ffaf26;fill-rule:evenodd;stroke:#000000;stroke-width:1.25;fill-opacity:1;stroke-opacity:1;stroke-dasharray:none;"
   d="M 312.7197 722.8916 C 312.7197 722.8916 300.543 708.2668 301.8579 697.1462 C 302.7012 686.7416 304.5466 679.8679 326.3154 671.5778 C 340.9172 666.1936 352.632 648.5708 343.0166 632.0872 C 359.5726 641.97 356.1803 671.6221 337.708 679.7336 C 297.9105 697.8293 303.6665 702.8718 312.7197 722.8916 z "
   id="path680"
   sodipodi:nodetypes="csscsc" /><path
   style="font-size:12;fill:#ffaf26;fill-rule:evenodd;stroke:#000000;stroke-width:1.25;fill-opacity:1;stroke-opacity:1;stroke-dasharray:none;"
   d="M 409.4747 730.5193 C 409.4747 730.5193 390.781 726.9553 384.7343 717.5302 C 378.7781 708.9576 375.8383 702.4761 387.389 682.2475 C 395.2487 668.8153 393.1063 647.7628 375.2105 641.1365 C 394.2755 638.2563 408.7588 667.1941 401.3687 681.3125 C 380.5496 719.7554 389.7677 720.8044 409.4747 730.5193 z "
   id="path681"
   sodipodi:nodetypes="csscsc" /><path
   style="font-size:12;fill:#ffaf26;fill-rule:evenodd;stroke:#000000;stroke-width:1.25;fill-opacity:1;stroke-opacity:1;stroke-dasharray:none;"
   d="M 482.0408 688.7293 C 482.0408 688.7293 463.7214 693.8821 454.1042 688.1459 C 444.9482 683.1323 439.4249 678.6439 440.7346 655.3867 C 441.7739 639.8587 430.4617 621.9749 411.4898 624.0311 C 427.2657 612.9457 453.1406 623.5177 452.8278 648.3113 C 452.2618 692.0261 460.0696 688.8299 482.0408 688.7293 z "
   id="path682"
   sodipodi:nodetypes="csscsc" /><path
   style="font-size:12;fill:#ffaf26;fill-rule:evenodd;stroke:#000000;stroke-width:1.25;fill-opacity:1;stroke-opacity:1;stroke-dasharray:none;"
   d="M 527.3542 599.1791 C 527.3542 599.1791 514.3758 613.0973 503.1782 613.1905 C 492.75 613.6616 485.6991 612.6948 474.7387 592.1403 C 467.562 578.3311 448.6067 568.9241 433.4623 580.5348 C 441.1859 562.8682 473.3904 566.0357 481.398 579.8131 C 502.8307 617.9174 508.6312 610.6766 527.3542 599.1791 z "
   id="path683"
   sodipodi:nodetypes="csscsc" /><path
   style="font-size:12;fill:#ffaf26;fill-rule:evenodd;stroke:#000000;stroke-width:1.25;fill-opacity:1;stroke-opacity:1;stroke-dasharray:none;"
   d="M 542.2145 507.584 C 542.2145 507.584 536.6037 525.7683 526.5672 530.7349 C 517.3882 535.7059 510.6212 537.9104 491.7952 524.1919 C 479.3152 514.8941 458.155 514.6936 449.5889 531.7459 C 448.8363 512.4795 475.4015 497.4898 492.4128 510.1946 C 528.0661 535.4955 530.3784 526.0948 542.2145 507.584 z "
   id="path684"
   sodipodi:nodetypes="csscsc" /><path
   style="font-size:12;fill:#ffaf26;fill-rule:evenodd;stroke:#000000;stroke-width:1.25;fill-opacity:1;stroke-opacity:1;stroke-dasharray:none;"
   d="M 499.0545 425.2817 C 499.0545 425.2817 504.0047 443.657 498.1625 453.2103 C 493.0481 462.3102 488.4989 467.7835 465.2577 466.217 C 449.742 465.0061 431.7343 476.12 433.5808 495.1135 C 422.6704 479.2161 432.894 453.5575 458.3162 454.0465 C 502.0261 454.9088 498.9123 447.2527 499.0545 425.2817 z "
   id="path685"
   sodipodi:nodetypes="csscsc" /><path
   style="font-size:12;fill:#ffaf26;fill-rule:evenodd;stroke:#000000;stroke-width:1.25;fill-opacity:1;stroke-opacity:1;stroke-dasharray:none;"
   d="M 428.4282 381.5986 C 428.4282 381.5986 439.0186 397.4099 436.5548 408.3337 C 434.6345 418.5941 432.0846 425.2387 409.5718 431.2208 C 394.4895 435.0581 384.8038 452.6334 392.6537 470.0271 C 377.2147 458.4769 370.5562 430.376 399.0888 421.9251 C 440.9299 409.2513 435.3512 402.4509 428.4282 381.5986 z "
   id="path686"
   sodipodi:nodetypes="csscsc" /><path
   style="font-size:12;fill:#ffaf26;fill-rule:evenodd;stroke:#000000;stroke-width:1.25;fill-opacity:1;stroke-opacity:1;stroke-dasharray:none;"
   d="M 334.426 365.9448 C 334.426 365.9448 351.6066 374.1292 355.0677 384.7788 C 358.6573 394.5809 359.8588 401.596 343.5594 418.2375 C 332.5525 429.2396 329.2905 450.1481 344.923 461.0928 C 325.7504 459.0481 314.6421 430.5493 329.7989 415.5997 C 360.2814 384.2608 351.0282 380.336 334.426 365.9448 z "
   id="path687"
   sodipodi:nodetypes="csscsc" /><path
   style="fill:#ffaf26;fill-rule:evenodd;stroke:#000000;stroke-opacity:1;stroke-width:1.25;stroke-linejoin:miter;stroke-linecap:butt;fill-opacity:1;stroke-dasharray:none;"
   d="M 246.2147 418.7863 C 246.2147 418.7863 265.203 417.5204 273.4313 425.1158 C 281.3569 431.9092 285.8364 437.4399 279.7608 459.9276 C 275.5425 474.9078 282.9254 494.7395 301.9137 496.6384 C 284.1913 504.2337 258.6594 489.1556 266.4688 464.3582 C 279.101 426.2569 267.7348 423.2169 246.2147 418.7863 z "
   id="path688"
   sodipodi:nodetypes="csscsc" /><path
   style="font-size:12;fill:#ffaf26;fill-rule:evenodd;stroke:#000000;stroke-width:1.25;fill-opacity:1;stroke-opacity:1;stroke-dasharray:none;"
   d="M 187.7373 494.3489 C 187.7373 494.3489 203.5487 483.7585 214.4723 486.2222 C 224.7328 488.1426 231.3775 490.6926 237.3597 513.2053 C 241.1967 528.2877 257.5063 541.771 274.9001 533.9213 C 263.3497 549.3602 234.6159 549.6893 228.0638 523.6883 C 216.4191 481.5492 208.5896 487.4259 187.7373 494.3489 z "
   id="path689"
   sodipodi:nodetypes="csscsc" /><path
   style="font-size:12;fill:#ffaf26;fill-rule:evenodd;stroke:#000000;stroke-width:1.25;fill-opacity:1;stroke-opacity:1;stroke-dasharray:none;"
   d="M 187.7035 592.7853 C 187.7035 592.7853 196.1013 575.708 206.7933 572.3799 C 216.6394 568.9127 223.6688 567.7987 240.1059 584.3042 C 250.9701 595.4474 271.8362 598.9695 282.9748 583.4746 C 280.6914 602.6202 260.3403 618.3972 237.2969 598.0307 C 204.9835 568.5835 202.3006 576.3636 187.7035 592.7853 z "
   id="path690"
   sodipodi:nodetypes="csscsc" /></g><path
   style="font-size:12;fill:#ffc726;fill-rule:evenodd;stroke:#000000;stroke-width:1.25;fill-opacity:1;stroke-opacity:1;stroke-dasharray:none;"
   d="M 393.928 749.1634 C 397.3021 738.0655 396.4599 725.2819 388.9207 718.1342 C 376.0697 705.9505 377.0493 711.9138 359.7555 708.4903 C 348.4616 706.2545 327.388 699.6169 328.6118 672.3747 C 331.4185 609.9179 265.7 613.0269 260.1736 617.9147 C 272.9988 617.2665 306.1519 634.1619 294.4989 672.5904 C 285.9424 700.1318 289.2438 734.1517 323.7529 741.4757 C 343.2605 746.6007 361.2982 719.54 377.985 726.428 C 388.999 730.9241 391.7902 740.5539 393.928 749.1634 z "
   id="path691"
   sodipodi:nodetypes="cssscsssc" /><path
   style="font-size:12;fill:#ffc726;fill-rule:evenodd;stroke:#000000;stroke-width:1.25;fill-opacity:1;stroke-opacity:1;stroke-dasharray:none;"
   d="M 408.2995 778.3328 C 417.5336 771.3135 424.3395 760.4603 422.4152 750.2502 C 419.1361 732.8478 416.8835 730.4308 404.8712 717.5258 C 397.0277 709.099 379.608 692.8032 396.5567 671.4402 C 435.4146 622.4634 378.9565 579.2052 371.6149 579.9287 C 382.3894 586.916 390.8894 628.1875 368.4497 656.1697 C 355.136 673.0038 331.4356 699.825 355.1158 725.974 C 367.9241 741.5533 399.2038 735.2103 408.694 750.5673 C 414.9872 760.6621 411.6093 770.1022 408.2995 778.3328 z "
   id="path692"
   sodipodi:nodetypes="cssscsssc" /><path
   style="font-size:12;fill:#ffc726;fill-rule:evenodd;stroke:#000000;stroke-width:1.25;fill-opacity:1;stroke-opacity:1;stroke-dasharray:none;"
   d="M 391.986 797.3358 C 403.5585 798.1221 415.8233 794.4224 421.0894 785.4667 C 430.0645 770.2009 435.2263 758.839 441.1506 742.2342 C 447.2256 726.1271 430.0764 708.9155 455.8969 700.1452 C 510.9401 682.369 486.4456 625.0492 476.7591 612.4853 C 480.2796 624.836 483.3843 670.5237 448.0767 676.8428 C 426.9768 680.7665 389.5134 689.2768 390.1516 724.5485 C 389.5533 744.7091 413.4963 758.8704 410.5448 776.6813 C 408.6468 788.4244 399.8927 793.3126 391.986 797.3358 z "
   id="path693"
   sodipodi:nodetypes="cssscsssc" /><path
   sodipodi:type="arc"
   style="stroke:#000000;stroke-opacity:1;stroke-width:0.9669;stroke-dasharray:none;fill:url(#radialGradient678);fill-opacity:1;stroke-linejoin:round;stroke-linecap:round;fill-rule:evenodd;"
   id="path694"
   d="M 310.2241 940.0988 A 83.12634 83.12634 0 1 0 143.9714 940.0988 A 83.12634 83.12634 0 1 0  310.2241 940.0988 z"
   sodipodi:cx="227.097748"
   sodipodi:cy="940.098755"
   sodipodi:rx="83.1263428"
   sodipodi:ry="83.1263428"
   transform="matrix(1.292738,0,0,1.292738,75.30157,-410.0141)" /><path
   style="font-size:12;fill:#ffd351;fill-rule:evenodd;stroke:#000000;stroke-width:1.25;fill-opacity:1;stroke-opacity:1;stroke-dasharray:none;"
   d="M 394.8789 840.2939 C 395.8355 835.3541 377.1104 837.8158 374.2621 842.4522 C 376.9751 851.6633 379.3194 864.2753 383.284 864.7621 C 396.1528 864.222 392.0584 856.845 394.8789 840.2939 z "
   id="path695"
   sodipodi:nodetypes="cccs" /><path
   sodipodi:type="arc"
   style="stroke:#000000;stroke-opacity:1;stroke-width:0.7488;stroke-dasharray:none;fill:url(#radialGradient735);fill-opacity:1;stroke-linejoin:round;stroke-linecap:round;fill-rule:evenodd;"
   id="path696"
   d="M 156.826 880.5392 A 12.4261 12.42612 0 1 0 131.9738 880.5392 A 12.4261 12.42612 0 1 0  156.826 880.5392 z"
   sodipodi:cx="144.399887"
   sodipodi:cy="880.539185"
   sodipodi:rx="12.4261017"
   sodipodi:ry="12.4261169"
   transform="matrix(1.669446,0,0,1.669446,167.685,-702.9464)" /><path
   style="font-size:12;fill:#ffd351;fill-rule:evenodd;stroke:#000000;stroke-width:1.25;fill-opacity:1;stroke-opacity:1;stroke-dasharray:none;"
   d="M 335.1093 836.9176 C 336.6817 832.1381 352.4754 832.4146 355.8376 836.6932 C 354.2007 846.1549 349.4542 860.2831 349.4542 860.2831 C 340.0685 859.5189 332.3931 843.9235 335.1093 836.9176 z "
   id="path697"
   sodipodi:nodetypes="cccs" /><path
   style="font-size:12;fill:#ffd351;fill-rule:evenodd;stroke:#000000;stroke-width:1.25;fill-opacity:1;stroke-opacity:1;stroke-dasharray:none;"
   d="M 414.2662 835.5188 C 412.5011 830.8069 396.7316 831.724 393.5457 836.1353 C 395.5652 845.5227 400.881 859.4469 400.881 859.4469 C 410.2279 858.3025 417.2643 842.4086 414.2662 835.5188 z "
   id="path698"
   sodipodi:nodetypes="cccs" /><path
   sodipodi:type="arc"
   style="stroke:#000000;stroke-opacity:1;stroke-width:0.7488;stroke-dasharray:none;fill:url(#radialGradient735);fill-opacity:1;stroke-linejoin:round;stroke-linecap:round;fill-rule:evenodd;"
   id="path699"
   d="M 156.826 880.5392 A 12.4261 12.42612 0 1 0 131.9738 880.5392 A 12.4261 12.42612 0 1 0  156.826 880.5392 z"
   sodipodi:cx="144.399887"
   sodipodi:cy="880.539185"
   sodipodi:rx="12.4261017"
   sodipodi:ry="12.4261169"
   transform="matrix(1.669446,0,0,1.669446,95.1301,-702.9464)" /><path
   sodipodi:type="arc"
   style="stroke:#000000;stroke-opacity:1;stroke-width:0.9669;stroke-dasharray:none;fill:#ffd351;fill-opacity:1;stroke-linejoin:round;stroke-linecap:round;fill-rule:evenodd;"
   id="path703"
   d="M 232.2396 880.1107 A 11.99762 11.99762 0 1 0 208.2444 880.1107 A 11.99762 11.99762 0 1 0  232.2396 880.1107 z"
   sodipodi:cx="220.241974"
   sodipodi:cy="880.110657"
   sodipodi:rx="11.9976196"
   sodipodi:ry="11.9976196"
   transform="matrix(1.292738,0,0,1.292738,124.0464,-370.1314)" /><path
   sodipodi:type="arc"
   style="stroke:#000000;stroke-opacity:1;stroke-width:0.9669;stroke-dasharray:none;fill:#ffd351;fill-opacity:1;stroke-linejoin:round;stroke-linecap:round;fill-rule:evenodd;"
   id="path704"
   d="M 156.826 880.5392 A 12.4261 12.42612 0 1 0 131.9738 880.5392 A 12.4261 12.42612 0 1 0  156.826 880.5392 z"
   sodipodi:cx="144.399887"
   sodipodi:cy="880.539185"
   sodipodi:rx="12.4261017"
   sodipodi:ry="12.4261169"
   transform="matrix(1.292738,0,0,1.292738,149.5267,-371.2398)" /><path
   style="font-size:12;fill:#ffc726;fill-rule:evenodd;stroke:#000000;stroke-width:1.25;fill-opacity:1;stroke-opacity:1;stroke-dasharray:none;"
   d="M 356.3183 752.1015 C 355.6179 740.5235 351.2995 735.2727 341.7433 731.1959 C 325.455 724.2471 311.6226 735.5836 297.8984 742.9938 C 287.6256 748.192 275.2277 737.2052 266.8927 711.2402 C 247.7834 651.7122 191.269 685.2433 187.7892 691.7482 C 199.5868 686.6767 230.7932 690.576 241.5779 724.7848 C 248.1682 745.2098 252.2238 778.499 287.1242 773.3531 C 307.1954 771.3672 318.1773 745.8088 336.2189 746.4577 C 348.1084 746.8387 348.5568 753.0548 356.3183 752.1015 z "
   id="path705"
   sodipodi:nodetypes="cssscsssc" /><path
   style="font-size:12;fill:#ffd351;fill-rule:evenodd;stroke:#000000;stroke-width:1.25;fill-opacity:1;stroke-opacity:1;stroke-dasharray:none;"
   d="M 354.6329 840.8181 C 353.3599 835.9501 372.205 837.2008 375.3459 841.6443 C 373.2315 851.0109 371.7045 863.7478 367.7796 864.4887 C 354.9025 864.7785 358.5137 857.1532 354.6329 840.8181 z "
   id="path706"
   sodipodi:nodetypes="cccs" /><path
   style="font-size:12;fill:#ffc726;fill-rule:evenodd;stroke:#000000;stroke-width:1.25;fill-opacity:1;stroke-opacity:1;stroke-dasharray:none;"
   d="M 388.6164 879.6307 C 400.0125 881.2671 406.1936 892.821 406.4093 920.0898 C 406.9031 982.6073 480.9746 963.1941 486.2353 958.0215 C 473.4621 959.3456 428.5328 949.5063 437.1706 914.6937 C 444.3287 889.5525 439.3412 861.1676 404.4939 855.6754 C 384.7431 851.5875 371.1657 877.1245 388.6164 879.6307 z "
   id="path707"
   sodipodi:nodetypes="cscsss" /><path
   style="font-size:12;fill:#ffc726;fill-rule:evenodd;stroke:#000000;stroke-width:1.25;fill-opacity:1;stroke-opacity:1;stroke-dasharray:none;"
   d="M 363.7019 878.1144 C 371.9798 886.1157 368.4139 898.0834 352.6163 920.3115 C 316.3979 971.2712 375.8124 994.4195 383.1057 993.3096 C 371.9775 986.9009 364.505 963.6111 385.4365 934.4835 C 397.8431 916.9703 415.6289 892.8613 390.6019 867.9986 C 376.9883 853.1166 351.0259 865.8617 363.7019 878.1144 z "
   id="path708"
   sodipodi:nodetypes="cscsss" /><path
   style="font-size:12;fill:#ffc726;fill-rule:evenodd;stroke:#000000;stroke-width:1.25;fill-opacity:1;stroke-opacity:1;stroke-dasharray:none;"
   d="M 338.7354 865.0661 C 340.7469 876.402 331.5033 884.1152 305.6717 892.8536 C 246.4488 912.889 282.7544 969.7363 289.3127 973.1145 C 284.0579 961.3964 283.885 927.9552 318.6038 918.9467 C 340.7637 912.9582 372.1449 907.4645 366.456 872.649 C 364.1571 852.6111 335.2109 855.3695 335.5783 837.3198 C 335.773 825.4259 335.6537 847.7078 338.7354 865.0661 z "
   id="path709"
   sodipodi:nodetypes="cscssss" /><path
   sodipodi:type="arc"
   style="font-size:12;fill:#ffc726;fill-rule:evenodd;stroke:#000000;stroke-width:1.25;stroke-linecap:round;stroke-linejoin:round;stroke-opacity:1;stroke-dasharray:none;"
   id="path710"
   d="M 319.6726 574.479 A 19.42844 19.42844 0 1 1 310.6634 537.9966"
   sodipodi:cx="310.369263"
   sodipodi:cy="557.422852"
   sodipodi:rx="19.4284363"
   sodipodi:ry="19.4284363"
   transform="matrix(-1,0,0,1,736.4421,250.3782)"
   sodipodi:start="1.07145141"
   sodipodi:end="4.72752636"
   sodipodi:open="true" /><path
   style="font-size:12;fill:#ffc726;fill-rule:evenodd;stroke:#000000;stroke-width:1.25;fill-opacity:1;stroke-opacity:1;stroke-dasharray:none;"
   d="M 389.5773 753.5399 C 384.8263 743.8062 391.0539 736.7466 400.6341 732.7267 C 416.9634 725.8745 427.9465 734.5382 445.3338 737.4516 C 456.6885 739.3541 458.535 700.3532 500.6581 712.7592 C 547.066 726.2844 552.1913 700.3887 551.7504 678.3254 C 566.621 698.6593 547.6289 744.4699 517.904 741.4209 C 457.4108 733.3438 491.7333 778.7308 456.8642 773.3781 C 436.805 771.2731 425.9749 745.6499 407.9297 746.1918 C 396.0382 746.5023 395.5421 753.6029 389.5773 753.5399 z "
   id="path712"
   sodipodi:nodetypes="cssscsssc" /><path
   style="font-size:12;fill:url(#radialGradient732);fill-rule:evenodd;stroke:#000000;stroke-width:1.25;fill-opacity:1;stroke-opacity:1;stroke-dasharray:none;"
   d="M 333.361 823.3089 C 333.361 823.3089 335.7579 854.8663 340.6345 860.9969 C 354.7349 878.2308 357.4575 871.4099 373.5355 871.5721 C 385.2791 871.4046 393.5113 877.0556 405.2618 863.347 C 408.0995 860.2256 414.407 840.2742 411.2735 832.8323 C 409.3154 837.9242 404.2093 841.8189 400.9534 847.6797 C 395.0779 857.8634 353.5598 860.997 343.3762 844.9379 C 340.1166 839.6721 334.536 827.2255 333.361 823.3089 z "
   id="path715"
   sodipodi:nodetypes="cssscssc" /><path
   style="font-size:12;fill:#ffd351;fill-rule:evenodd;stroke:#000000;stroke-width:1.25;fill-opacity:1;stroke-opacity:1;stroke-dasharray:none;"
   d="M 354.9476 835.5125 C 352.799 838.8295 371.5512 840.4669 375.4577 837.7054 C 375.1071 830.7096 375.9551 821.3778 372.234 820.3191 C 359.6315 818.3801 361.7742 824.3295 354.9476 835.5125 z "
   id="path722"
   sodipodi:nodetypes="cccs" /><path
   style="font-size:12;fill:#ffd351;fill-rule:evenodd;stroke:#000000;stroke-width:1.25;fill-opacity:1;stroke-opacity:1;stroke-dasharray:none;"
   d="M 395.1581 835.5871 C 397.4564 838.8506 378.7885 840.9392 374.7586 838.2733 C 374.7918 831.2729 373.5209 821.9667 377.192 820.8189 C 389.6997 818.5771 387.8278 824.5749 395.1581 835.5871 z "
   id="path729"
   sodipodi:nodetypes="cccs" /><path
   sodipodi:type="arc"
   style="font-size:12;fill:#ffc726;fill-rule:evenodd;stroke:#000000;stroke-width:1.25;stroke-linecap:round;stroke-linejoin:round;stroke-opacity:1;stroke-dasharray:none;"
   id="path730"
   d="M 319.6726 574.479 A 19.42844 19.42844 0 1 1 310.6634 537.9966"
   sodipodi:cx="310.369263"
   sodipodi:cy="557.422852"
   sodipodi:rx="19.4284363"
   sodipodi:ry="19.4284363"
   transform="translate(8.776379,250.3782)"
   sodipodi:start="1.07145141"
   sodipodi:end="4.72752636"
   sodipodi:open="true" /><path
   style="font-size:12;fill:#ffd351;fill-rule:evenodd;stroke:#000000;stroke-width:1.25;fill-opacity:1;stroke-opacity:1;stroke-dasharray:none;"
   d="M 337.9327 829.8188 C 338.9363 833.3878 351.3261 838.5208 356.2712 836.8652 C 359.1354 830.1833 361.3641 819.4396 361.3641 819.4396 C 340.2447 812.2106 335.4951 820.6905 337.9327 829.8188 z "
   id="path731"
   sodipodi:nodetypes="cccs" /><path
   style="font-size:12;fill:#ffd351;fill-rule:evenodd;stroke:#000000;stroke-width:1.25;fill-opacity:1;stroke-opacity:1;stroke-dasharray:none;"
   d="M 410.7409 832.0393 C 411.037 835.7011 396.2488 839.7492 391.5485 837.7503 C 389.5902 830.8971 388.8068 820.0461 388.8068 820.0461 C 409.7759 810.687 410.6895 826.5614 410.7409 832.0393 z "
   id="path732"
   sodipodi:nodetypes="cccs" /><path
   style="font-size:12;fill:#ffc726;fill-rule:evenodd;stroke:#000000;stroke-width:1.25;fill-opacity:1;stroke-opacity:1;stroke-dasharray:none;"
   d="M 373.0444 818.2652 C 368.4689 805.2421 340.6233 802.448 325.0609 808.3513 C 302.9541 817.1971 323.7667 832.6746 316.1102 849.37 C 311.1101 860.2731 297.6957 864.6082 269.526 857.1539 C 204.9428 840.0634 196.6873 892.1977 200.4885 898.8985 C 202.8375 885.7898 228.0563 867.562 265.0552 877.5539 C 287.2344 883.3889 326.3731 903.3005 342.1656 870.0991 C 352.1212 851.5551 326.1121 818.7081 338.737 822.1091 C 344.3053 823.4852 371.6281 833.0781 373.0444 818.2652 z "
   id="path751"
   sodipodi:nodetypes="cssscsssc" /><path
   style="font-size:12;fill:#ffc726;fill-rule:evenodd;stroke:#000000;stroke-width:1.25;fill-opacity:1;stroke-opacity:1;stroke-dasharray:none;"
   d="M 372.3081 818.5624 C 376.8765 805.2716 407.1974 798.2984 421.1421 807.6287 C 440.0059 819.9426 424.1752 823.6226 427.2195 847.1014 C 428.2773 859.2509 474.763 831.1638 482.4531 864.5138 C 490.8349 901.7256 515.0905 896.4583 555.3572 883.7435 C 519.7045 919.5327 470.9615 913.2338 466.4726 891.2949 C 457.2093 841.5247 430.3037 900.3367 407.1763 856.3323 C 397.3919 837.3263 418.6834 823.7403 406.1083 821.6599 C 399.4224 820.6298 382.4536 835.7813 372.3081 818.5624 z "
   id="path752"
   sodipodi:nodetypes="cssscsssc" /><path
   sodipodi:type="arc"
   style="stroke:#000000;stroke-opacity:1;stroke-width:0.5253;stroke-dasharray:none;fill:#000000;fill-opacity:1;stroke-linejoin:round;stroke-linecap:round;fill-rule:evenodd;"
   id="path753"
   d="M 163.3092 889.9619 A 3.029854 3.029877 0 1 0 157.2495 889.9619 A 3.029854 3.029877 0 1 0  163.3092 889.9619 z"
   sodipodi:cx="160.279388"
   sodipodi:cy="889.961914"
   sodipodi:rx="3.02985382"
   sodipodi:ry="3.02987671"
   transform="matrix(2.379649,0,0,2.37965,-44.8932,-1350.614)" /><path
   style="font-size:12;fill:#ffc726;fill-rule:evenodd;stroke:#000000;stroke-width:1.25;fill-opacity:1;stroke-opacity:1;stroke-dasharray:none;"
   d="M 298.5253 797.5544 C 297.363 793.339 288.7617 770.357 272.8929 769.6958 C 251.0731 769.0346 249.0488 788.3441 255.6608 798.2622 C 262.2729 808.1802 253.0159 822.7266 264.2565 836.6118 C 271.5296 858.4317 291.3656 857.7703 295.3329 846.53 C 299.3001 835.2895 295.333 834.6283 292.0271 823.3879 "
   id="path754"
   sodipodi:nodetypes="cccccc" /><path
   style="font-size:12;fill:url(#radialGradient733);fill-rule:evenodd;stroke:#000000;stroke-width:1.25;fill-opacity:1;stroke-opacity:1;stroke-dasharray:none;"
   d="M 292.0271 797.601 C 292.0271 797.601 278.4643 770.7486 262.9341 784.3769 C 256.1465 800.4338 269.546 791.6499 267.5626 806.1966 C 265.5789 820.7429 270.2072 833.3059 280.7866 833.3059 C 291.3657 833.3059 272.1909 814.1309 278.1417 807.519 C 284.0926 800.9069 291.3657 799.5845 292.0271 797.601 z "
   id="path755"
   sodipodi:nodetypes="cccccc" /><path
   style="font-size:12;fill:#ffc726;fill-rule:evenodd;stroke:#000000;stroke-width:1.25;fill-opacity:1;stroke-opacity:1;stroke-dasharray:none;"
   d="M 284.8653 790.8329 C 273.2497 788.7733 255.7669 804.1156 235.5216 785.8462 C 189.1063 743.9609 164.4806 790.981 164.7372 798.3539 C 172.3936 788.0443 199.6264 776.2226 222.8941 803.5203 C 241.3589 826.2345 255.3559 839.3949 281.0082 824.145 "
   id="path756"
   sodipodi:nodetypes="cscsc" /><path
   style="font-size:12;fill:#ffc726;fill-rule:evenodd;stroke:#000000;stroke-width:1.25;fill-opacity:1;stroke-opacity:1;stroke-dasharray:none;"
   d="M 442.2567 791.0352 C 442.2567 786.4324 450.9507 767.7123 466.8196 767.051 C 486.6965 765.904 485.3209 778.4136 485.5088 795.6173 C 478.8967 805.5354 488.1536 820.0818 476.9131 833.9671 C 469.64 855.7869 449.8039 855.1256 445.8366 843.8852 C 441.8694 832.6446 445.8365 831.9835 449.1426 820.743 "
   id="path757"
   sodipodi:nodetypes="cccccc" /><path
   style="font-size:12;fill:url(#radialGradient734);fill-rule:evenodd;stroke:#000000;stroke-width:1.25;fill-opacity:1;stroke-opacity:1;stroke-dasharray:none;"
   d="M 449.1426 794.9561 C 455.4569 780.3848 470.9623 772.4752 478.2355 781.7321 C 485.5088 790.9889 471.6235 789.0052 473.6072 803.5517 C 475.5906 818.0981 470.9623 830.6611 460.383 830.6611 C 449.8039 830.6611 468.9787 811.4862 463.0278 804.8742 C 457.077 798.2621 449.8039 796.9397 449.1426 794.9561 z "
   id="path758"
   sodipodi:nodetypes="cccccc" /><path
   style="font-size:12;fill:#ffc726;fill-rule:evenodd;stroke:#000000;stroke-width:1.25;fill-opacity:1;stroke-opacity:1;stroke-dasharray:none;"
   d="M 460.8017 824.74 C 474.2173 826.0502 480.6506 797.4187 502.4476 813.8059 C 547.4856 846.7457 581.8582 790.3802 581.3536 783.0202 C 569.4483 802.782 535.3345 813.4604 508.0333 790.1968 C 491.6043 776.3869 482.818 773.5223 454.9529 795.1565 "
   id="path759"
   sodipodi:nodetypes="ccscsc" /><path
   sodipodi:type="arc"
   style="stroke:#000000;stroke-opacity:1;stroke-width:1.0455;stroke-dasharray:none;fill:url(#radialGradient730);fill-opacity:1;stroke-linejoin:round;stroke-linecap:round;fill-rule:evenodd;"
   id="path760"
   d="M 156.826 880.5392 A 12.4261 12.42612 0 1 0 131.9738 880.5392 A 12.4261 12.42612 0 1 0  156.826 880.5392 z"
   sodipodi:cx="144.399887"
   sodipodi:cy="880.539185"
   sodipodi:rx="12.4261017"
   sodipodi:ry="12.4261169"
   transform="matrix(1.195572,0,0,1.195574,176.0806,-256.3631)" /><path
   sodipodi:type="arc"
   style="stroke:#000000;stroke-opacity:1;stroke-width:1.0455;stroke-dasharray:none;fill:url(#radialGradient729);fill-opacity:1;stroke-linejoin:round;stroke-linecap:round;fill-rule:evenodd;"
   id="path761"
   d="M 156.826 880.5392 A 12.4261 12.42612 0 1 0 131.9738 880.5392 A 12.4261 12.42612 0 1 0  156.826 880.5392 z"
   sodipodi:cx="144.399887"
   sodipodi:cy="880.539185"
   sodipodi:rx="12.4261017"
   sodipodi:ry="12.4261169"
   transform="matrix(1.195572,0,0,1.195574,222.9605,-256.3633)" /><path
   sodipodi:type="arc"
   style="stroke:#000000;stroke-opacity:1;stroke-width:0.5321;stroke-dasharray:none;fill:url(#radialGradient728);fill-opacity:1;stroke-linejoin:round;stroke-linecap:round;fill-rule:evenodd;"
   id="path762"
   d="M 156.826 880.5392 A 12.4261 12.42612 0 1 0 131.9738 880.5392 A 12.4261 12.42612 0 1 0  156.826 880.5392 z"
   sodipodi:cx="144.399887"
   sodipodi:cy="880.539185"
   sodipodi:rx="12.4261017"
   sodipodi:ry="12.4261169"
   transform="matrix(2.34921,0,0,2.34921,33.12914,-1281.484)" /><path
   sodipodi:type="arc"
   style="stroke:#000000;stroke-opacity:1;stroke-width:0.5253;stroke-dasharray:none;fill:#000000;fill-opacity:1;stroke-linejoin:round;stroke-linecap:round;fill-rule:evenodd;"
   id="path763"
   d="M 163.3092 889.9619 A 3.029854 3.029877 0 1 0 157.2495 889.9619 A 3.029854 3.029877 0 1 0  163.3092 889.9619 z"
   sodipodi:cx="160.279388"
   sodipodi:cy="889.961914"
   sodipodi:rx="3.02985382"
   sodipodi:ry="3.02987671"
   transform="matrix(2.379649,0,0,2.37965,27.55766,-1350.227)" /><path
   style="fill:#ffc726;fill-rule:evenodd;stroke:#000000;stroke-opacity:1;stroke-width:1.25;stroke-linejoin:miter;stroke-linecap:butt;fill-opacity:1;stroke-dasharray:none;"
   d="M 283.4641 827.2446 C 283.4641 827.2446 275.7153 816.0088 277.2651 810.1973 C 278.4273 801.2862 289.6631 799.3489 289.6631 799.3489 "
   id="path764"
   sodipodi:nodetypes="ccc" /><path
   style="fill:#ffc726;fill-rule:evenodd;stroke:#000000;stroke-opacity:1;stroke-width:1.25;stroke-linejoin:miter;stroke-linecap:butt;fill-opacity:1;stroke-dasharray:none;"
   d="M 457.9936 824.9199 C 457.9936 824.9199 465.7424 813.6841 464.1926 807.8726 C 463.0304 798.9615 451.7946 797.0242 451.7946 797.0242 "
   id="path765"
   sodipodi:nodetypes="ccc" /><path
   style="fill:#b3b35c;fill-rule:evenodd;stroke:#000000;stroke-opacity:1;stroke-width:1.25;stroke-linejoin:miter;stroke-linecap:butt;fill-opacity:1;stroke-dasharray:none;"
   d="M 332.9042 766.7082 C 332.1007 768.6232 327.7538 769.3234 331.1498 763.7443 C 334.0606 760.1058 339.1547 760.3483 336.9715 763.0166 C 334.0606 763.9869 334.45 763.0241 332.9042 766.7082 z "
   id="path766"
   sodipodi:nodetypes="cccs" /><path
   style="fill:#b3b35c;fill-rule:evenodd;stroke:#000000;stroke-opacity:1;stroke-width:1.25;stroke-linejoin:miter;stroke-linecap:butt;fill-opacity:1;stroke-dasharray:none;"
   d="M 407.2737 765.4321 C 405.842 767.1089 401.01 770.0511 404.406 764.472 C 407.3168 760.8335 412.4109 761.076 410.2277 763.7443 C 407.3168 764.7146 409.7499 761.9978 407.2737 765.4321 z "
   id="path767"
   sodipodi:nodetypes="cccs" /><path
   style="font-size:12;fill:#646462;fill-rule:evenodd;stroke:#000000;stroke-width:1.25;fill-opacity:1;stroke-opacity:1;stroke-dasharray:none;"
   d="M 341.9027 769.0316 C 339.85 773.2147 334.8245 774.5278 336.3772 771.4496 C 340.1216 770.9844 344.0082 762.8489 341.9027 769.0316 z "
   id="path768"
   sodipodi:nodetypes="ccc" /><path
   style="font-size:12;fill:#646462;fill-rule:evenodd;stroke:#000000;stroke-width:1.25;fill-opacity:1;stroke-opacity:1;stroke-dasharray:none;"
   d="M 414.4823 769.2542 C 412.4296 773.4373 407.4041 774.7504 408.9568 771.6722 C 412.7012 771.207 416.5878 763.0715 414.4823 769.2542 z "
   id="path769"
   sodipodi:nodetypes="ccc" /></g></svg>
